{
  "accessors": [
    {
      "bufferView": 2,
      "componentType": 5126,
      "count": 645,
      "max": [
        4.742621898651123,
        5.217529773712158,
        13.40101432800293
      ],
      "min": [
        -5.75908899307251,
        -5.291644096374512,
        2.902137041091919
      ],
      "type": "VEC3"
    },
    {
      "bufferView": 2,
      "byteOffset": 7740,
      "componentType": 5126,
      "count": 645,
      "max": [
        0.9981136322021484,
        0.9996368885040283,
        0.9967808723449707
      ],
      "min": [
        -0.9981038570404053,
        -0.999737024307251,
        -0.9978317618370056
      ],
      "type": "VEC3"
    },
    {
      "bufferView": 1,
      "componentType": 5126,
      "count": 645,
      "max": [
        0.98894202709198,
        0.9933189749717712
      ],
      "min": [
        0.038846999406814575,
        0.028742000460624695
      ],
      "type": "VEC2"
    },
    {
      "bufferView": 0,
      "componentType": 5125,
      "count": 3468,
      "type": "SCALAR"
    },
    {
      "bufferView": 2,
      "byteOffset": 15480,
      "componentType": 5126,
      "count": 295,
      "max": [
        3.030374050140381,
        1.9287400245666504,
        14.769783973693848
      ],
      "min": [
        -7.6587910652160645,
        -1.7361010313034058,
        7.989177227020264
      ],
      "type": "VEC3"
    },
    {
      "bufferView": 2,
      "byteOffset": 19020,
      "componentType": 5126,
      "count": 295,
      "max": [
        0.9981022477149963,
        0.9971047639846802,
        0.9994374513626099
      ],
      "min": [
        -0.9977989792823792,
        -0.9991012215614319,
        -0.9989942312240601
      ],
      "type": "VEC3"
    },
    {
      "bufferView": 1,
      "byteOffset": 5160,
      "componentType": 5126,
      "count": 295,
      "max": [
        1.3389259576797485,
        1.0
      ],
      "min": [
        0.0,
        0.0
      ],
      "type": "VEC2"
    },
    {
      "bufferView": 0,
      "byteOffset": 13872,
      "componentType": 5125,
      "count": 1644,
      "type": "SCALAR"
    },
    {
      "bufferView": 2,
      "byteOffset": 22560,
      "componentType": 5126,
      "count": 124,
      "max": [
        2.010051965713501,
        -3.2178258895874023,
        9.488123893737793
      ],
      "min": [
        -2.075793981552124,
        -5.291644096374512,
        6.673104763031006
      ],
      "type": "VEC3"
    },
    {
      "bufferView": 2,
      "byteOffset": 24048,
      "componentType": 5126,
      "count": 124,
      "max": [
        0.8113731145858765,
        0.8492099046707153,
        0.9941126704216003
      ],
      "min": [
        -0.9884404540061951,
        -0.9899557828903198,
        -0.9804283380508423
      ],
      "type": "VEC3"
    },
    {
      "bufferView": 1,
      "byteOffset": 7520,
      "componentType": 5126,
      "count": 124,
      "max": [
        0.5883049964904785,
        0.8829740285873413
      ],
      "min": [
        0.0645269975066185,
        0.02948099933564663
      ],
      "type": "VEC2"
    },
    {
      "bufferView": 0,
      "byteOffset": 20448,
      "componentType": 5125,
      "count": 354,
      "type": "SCALAR"
    },
    {
      "bufferView": 2,
      "byteOffset": 25536,
      "componentType": 5126,
      "count": 324,
      "max": [
        6.918284893035889,
        6.5455498695373535,
        9.704751968383789
      ],
      "min": [
        -4.944715976715088,
        0.89369797706604,
        0.3624750077724457
      ],
      "type": "VEC3"
    },
    {
      "bufferView": 2,
      "byteOffset": 29424,
      "componentType": 5126,
      "count": 324,
      "max": [
        0.9959821105003357,
        0.9892513751983643,
        0.9918843507766724
      ],
      "min": [
        -0.9894777536392212,
        -0.9995556473731995,
        -0.998603880405426
      ],
      "type": "VEC3"
    },
    {
      "bufferView": 1,
      "byteOffset": 8512,
      "componentType": 5126,
      "count": 324,
      "max": [
        0.9951760172843933,
        0.9860960245132446
      ],
      "min": [
        0.0045540002174675465,
        0.013728000223636627
      ],
      "type": "VEC2"
    },
    {
      "bufferView": 0,
      "byteOffset": 21864,
      "componentType": 5125,
      "count": 1920,
      "type": "SCALAR"
    }
  ],
  "asset": {
    "extras": {
      "author": "OomiShroomi (https://sketchfab.com/OomiShroomi)",
      "license": "CC-BY-4.0 (http://creativecommons.org/licenses/by/4.0/)",
      "source": "https://sketchfab.com/3d-models/kirby-8b49dcbbc5c649788121faf85cea5e43",
      "title": "Kirby"
    },
    "generator": "Sketchfab-12.66.0",
    "version": "2.0"
  },
  "bufferViews": [
    {
      "buffer": 0,
      "byteLength": 29544,
      "name": "floatBufferViews",
      "target": 34963
    },
    {
      "buffer": 0,
      "byteLength": 11104,
      "byteOffset": 29544,
      "byteStride": 8,
      "name": "floatBufferViews",
      "target": 34962
    },
    {
      "buffer": 0,
      "byteLength": 33312,
      "byteOffset": 40648,
      "byteStride": 12,
      "name": "floatBufferViews",
      "target": 34962
    }
  ],
  "buffers": [
    {
      "byteLength": 73960,
      "uri": "scene.bin"
    }
  ],
  "images": [
    {
      "uri": "textures/mat1_baseColor.png"
    },
    {
      "uri": "textures/mat2_baseColor.png"
    },
    {
      "uri": "textures/mat3_baseColor.png"
    },
    {
      "uri": "textures/mat4_baseColor.png"
    }
  ],
  "materials": [
    {
      "doubleSided": true,
      "emissiveFactor": [
        1.0,
        1.0,
        1.0
      ],
      "emissiveTexture": {
        "index": 0
      },
      "name": "mat1",
      "pbrMetallicRoughness": {
        "baseColorTexture": {
          "index": 0
        },
        "metallicFactor": 0.0,
        "roughnessFactor": 0.6
      }
    },
    {
      "doubleSided": true,
      "emissiveFactor": [
        1.0,
        1.0,
        1.0
      ],
      "emissiveTexture": {
        "index": 1
      },
      "name": "mat2",
      "pbrMetallicRoughness": {
        "baseColorTexture": {
          "index": 1
        },
        "metallicFactor": 0.0,
        "roughnessFactor": 0.6
      }
    },
    {
      "doubleSided": true,
      "emissiveFactor": [
        1.0,
        1.0,
        1.0
      ],
      "emissiveTexture": {
        "index": 2
      },
      "name": "mat3",
      "pbrMetallicRoughness": {
        "baseColorTexture": {
          "index": 2
        },
        "metallicFactor": 0.0,
        "roughnessFactor": 0.6
      }
    },
    {
      "doubleSided": true,
      "emissiveFactor": [
        1.0,
        1.0,
        1.0
      ],
      "emissiveTexture": {
        "index": 3
      },
      "name": "mat4",
      "pbrMetallicRoughness": {
        "baseColorTexture": {
          "index": 3
        },
        "metallicFactor": 0.0,
        "roughnessFactor": 0.6
      }
    }
  ],
  "meshes": [
    {
      "name": "Object_0",
      "primitives": [
        {
          "attributes": {
            "NORMAL": 1,
            "POSITION": 0,
            "TEXCOORD_0": 2
          },
          "indices": 3,
          "material": 2,
          "mode": 4
        }
      ]
    },
    {
      "name": "Object_1",
      "primitives": [
        {
          "attributes": {
            "NORMAL": 5,
            "POSITION": 4,
            "TEXCOORD_0": 6
          },
          "indices": 7,
          "material": 0,
          "mode": 4
        }
      ]
    },
    {
      "name": "Object_2",
      "primitives": [
        {
          "attributes": {
            "NORMAL": 9,
            "POSITION": 8,
            "TEXCOORD_0": 10
          },
          "indices": 11,
          "material": 1,
          "mode": 4
        }
      ]
    },
    {
      "name": "Object_3",
      "primitives": [
        {
          "attributes": {
            "NORMAL": 13,
            "POSITION": 12,
            "TEXCOORD_0": 14
          },
          "indices": 15,
          "material": 3,
          "mode": 4
        }
      ]
    }
  ],
  "nodes": [
    {
      "children": [
        1
      ],
      "matrix": [
        0.8896539211273193,
        -0.45164018869400024,
        0.06735711544752111,
        0.0,
        -6.938893903907228e-18,
        -0.14750744402408578,
        -0.9890609383583069,
        0.0,
        0.45663535594940186,
        0.8799219727516174,
        -0.13123057782649974,
        0.0,
        -3.495818853378296,
        0.8337834477424619,
        1.0109888315200808,
        1.0
      ],
      "name": "Sketchfab_model"
    },
    {
      "children": [
        2,
        3,
        4,
        5
      ],
      "name": "Kirby.obj.cleaner.materialmerger.gles"
    },
    {
      "mesh": 0,
      "name": "Object_2"
    },
    {
      "mesh": 1,
      "name": "Object_3"
    },
    {
      "mesh": 2,
      "name": "Object_4"
    },
    {
      "mesh": 3,
      "name": "Object_5"
    }
  ],
  "samplers": [
    {
      "magFilter": 9729,
      "minFilter": 9987,
      "wrapS": 10497,
      "wrapT": 10497
    }
  ],
  "scene": 0,
  "scenes": [
    {
      "name": "Sketchfab_Scene",
      "nodes": [
        0
      ]
    }
  ],
  "textures": [
    {
      "sampler": 0,
      "source": 0
    },
    {
      "sampler": 0,
      "source": 1
    },
    {
      "sampler": 0,
      "source": 2
    },
    {
      "sampler": 0,
      "source": 3
    }
  ]
}
